inDegrees=yes
name=ik_S55_A06_T03
DataType=double
version=3
OpenSimVersion=4.3-2021-08-27-4bc7ad9
endheader
time	pelvis_tilt	pelvis_list	pelvis_rotation	pelvis_tx	pelvis_ty	pelvis_tz	hip_flexion_r	hip_adduction_r	hip_rotation_r	knee_angle_r	knee_angle_r_beta	ankle_angle_r	subtalar_angle_r	mtp_angle_r	hip_flexion_l	hip_adduction_l	hip_rotation_l	knee_angle_l	knee_angle_l_beta	ankle_angle_l	subtalar_angle_l	mtp_angle_l	lumbar_extension	lumbar_bending	lumbar_rotation	arm_flex_r	arm_add_r	arm_rot_r	elbow_flex_r	pro_sup_r	wrist_flex_r	wrist_dev_r	arm_flex_l	arm_add_l	arm_rot_l	elbow_flex_l	pro_sup_l	wrist_flex_l	wrist_dev_l
14.33999999999978	-5.845642100173346	-0.6020349651251745	21.9490754356902	0	0.9399999999999999	0	42.96870696209544	-10.28795545904962	-10.19231878360193	53.40139224687661	0.9320301198569694	0	0	0	42.96870696209544	-10.28795545904962	-10.19231878360193	53.40139224687661	0.9320301198569694	0	0	0	-3.392293094761237	-0.4094325308442364	-0.2962369803336095	20.10430557156065	-17.97322193842855	-6.25664421598051	57.65568900626948	118.1676750550368	0	0	54.69626566988889	-8.589656053575844	15.46602627379534	62.78648654646176	110.3553895174281	0	0
14.35999999999978	-5.842727707270286	-0.5874117162454481	21.95311765944442	0	0.9399999999999999	0	42.96885016426343	-10.28788775925286	-10.19228933050947	53.40147096773701	0.9320314937951735	-1.656919590067068e-35	0	0	42.96885016426343	-10.28788775925286	-10.19228933050947	53.40147096773701	0.9320314937951735	-1.656919590067068e-35	0	0	-3.38425090720615	-0.3969790884258317	-0.2938476301928257	20.09023572690708	-18.01968102780693	-6.238664398772087	57.66251738274859	118.1797874682242	0	0	54.72803317945146	-8.65447737993108	15.58774977347723	62.77714793062503	110.4158116032293	0	0
14.37999999999978	-5.841311684989847	-0.6018915348409342	21.99452130034975	0	0.9399999999999999	0	42.96557386913331	-10.28940987226361	-10.19296588323921	53.39973991470063	0.9320012812201619	0	0	0	42.96557386913331	-10.28940987226361	-10.19296588323921	53.39973991470063	0.9320012812201619	0	0	0	-3.385803402546179	-0.4132461973203327	-0.2939271325071694	20.06363761163817	-17.97115962178072	-6.240751988335251	57.65201074113708	118.2027366493006	0	0	54.75575226324686	-8.690486356823582	15.63125067239983	62.7416659170498	110.6396037389388	0	0
14.39999999999978	-5.840920113564176	-0.6074101157089961	22.02151791152932	0	0.9399999999999999	0	42.96308995653986	-10.29045622877602	-10.19345476187786	53.39841121076856	0.9319780909617631	0	0	0	42.96308995653986	-10.29045622877602	-10.19345476187786	53.39841121076856	0.9319780909617631	0	0	0	-3.385645621791207	-0.4195504871977416	-0.3055107955429046	20.06974156306827	-17.95978488035879	-6.241588582332483	57.65677211606166	118.2006998854905	0	0	54.75200443772457	-8.714091265711474	15.61924430150849	62.71584475650636	110.8804407367296	0	0
14.41999999999978	-5.838270197629871	-0.6056217928726758	22.03330800219125	0	0.9399999999999999	0	42.96299156703177	-10.29099869111714	-10.1935988681602	53.3984631776738	0.9319789979553615	0	0	0	42.96299156703177	-10.29099869111714	-10.1935988681602	53.3984631776738	0.9319789979553615	0	0	0	-3.382682917533443	-0.4184971214466959	-0.310373815625571	20.05496747394081	-17.98332038221497	-6.242731539466773	57.66218356929012	118.1875929616846	0	0	54.74494085895823	-8.729188031768157	15.63688654984735	62.67406815610993	111.0229843637592	0	0
14.43999999999978	-5.826484700675459	-0.6017920322352227	22.02347846449236	0	0.9399999999999999	0	42.95842241543784	-10.2933843179256	-10.19459914602531	53.39609140958989	0.9319376027932037	0	0	0	42.95842241543784	-10.2933843179256	-10.19459914602531	53.39609140958989	0.9319376027932037	0	0	0	-3.366464062790684	-0.4248380702451268	-0.2736468884972193	20.01992260027859	-17.99825168247273	-6.282275526046457	57.68390431896701	118.1749774931462	0	0	54.69604794542864	-8.649775030370909	15.67893878309475	62.47325530365065	111.2185450808744	0	0
14.45999999999978	-5.828091668738547	-0.6016689967811087	22.03264917453073	0	0.9399999999999999	0	42.95958806452797	-10.29289043983244	-10.1943757301515	53.3967296059217	0.9319487414204679	0	0	0	42.95958806452797	-10.29289043983244	-10.1943757301515	53.3967296059217	0.9319487414204679	0	0	0	-3.368810701552914	-0.423419171400383	-0.2711801878099859	20.0082053752721	-18.00573921396982	-6.300265052774719	57.67670308913145	118.1821468342489	0	0	54.70893713603355	-8.646833244545764	15.67829706234087	62.47821081306528	111.2176121289113	0	0
14.47999999999978	-5.827389465684526	-0.6081262296643853	22.04419984013675	0	0.9399999999999999	0	42.95812399498764	-10.29361498128809	-10.19468986930353	53.39596824162025	0.9319354531066004	0	0	0	42.95812399498764	-10.29361498128809	-10.19468986930353	53.39596824162025	0.9319354531066004	0	0	0	-3.369362612328893	-0.4313340662817094	-0.2610953052244835	20.01656670444472	-18.00236951710994	-6.305721822512856	57.65328975629568	118.2119139596679	0	0	54.67692273096892	-8.604673731582285	15.725782370482	62.43126391177502	111.2186581355959	0	0
14.49999999999978	-5.82559851634979	-0.6122728029115794	22.05924358562536	0	0.9399999999999999	0	42.95816090422615	-10.29319528080949	-10.19459130943199	53.39592370627321	0.931934675818161	0	0	0	42.95816090422615	-10.29319528080949	-10.19459130943199	53.39592370627321	0.931934675818161	0	0	0	-3.369065342490047	-0.436675291437069	-0.2489260224830556	20.02037686350776	-18.01005115966403	-6.322139968786	57.63736926586649	118.219264601307	0	0	54.64482901959284	-8.560094733114353	15.7528744567083	62.39101218677761	111.1951661197797	0	0
14.51999999999978	-5.819431734071733	-0.6202743357566499	22.06829541278056	0	0.9399999999999999	0	42.95879701930131	-10.2922175105024	-10.19430313684886	53.39614419764105	0.9319385241185021	0	0	0	42.95879701930131	-10.2922175105024	-10.19430313684886	53.39614419764105	0.9319385241185021	0	0	0	-3.366628551913821	-0.4464492262994685	-0.243665082474681	20.01052640661732	-18.02472611242889	-6.344024324330909	57.62384670656103	118.2217867379279	0	0	54.63676126508734	-8.556430104716867	15.76039064505724	62.36852786034676	111.1952429423763	0	0
14.53999999999978	-5.809266405613617	-0.6325113321766314	22.10269878824131	0	0.9399999999999999	0	42.95825065551822	-10.29190107121956	-10.194282793505	53.39575504050722	0.9319317320452092	0	0	0	42.95825065551822	-10.29190107121956	-10.194282793505	53.39575504050722	0.9319317320452092	0	0	0	-3.361096931597341	-0.4628775187252499	-0.2319478354767518	19.98591895561545	-18.03944931015567	-6.410629895602153	57.60123843321011	118.2273128119962	0	0	54.63289810756712	-8.576932203329331	15.76021094682502	62.34774614570691	111.2136929895033	0	0
14.55999999999978	-5.806770654491196	-0.6438539976351277	22.11869553082695	0	0.9399999999999999	0	42.95727866620054	-10.29178695822705	-10.19435126768838	53.3951418790051	0.9319210303581508	0	0	0	42.95727866620054	-10.29178695822705	-10.19435126768838	53.3951418790051	0.9319210303581508	0	0	0	-3.362095495929657	-0.4754386839635493	-0.2274546744434187	19.97061110508906	-18.03852232362824	-6.420829737541877	57.59112738288495	118.2388988282766	0	0	54.648215500336	-8.543146997428286	15.74731154668233	62.30794517550937	111.2613503590722	0	0
14.57999999999978	-5.804400501548553	-0.6482627706149391	22.11699071883019	0	0.9399999999999999	0	42.95722903973562	-10.29168465396891	-10.19433552965973	53.39510056476677	0.9319203092886639	0	0	0	42.95722903973562	-10.29168465396891	-10.19433552965973	53.39510056476677	0.9319203092886639	0	0	0	-3.361386353168827	-0.4810639317078168	-0.2182100596551257	19.97407664159367	-18.05407662147909	-6.410088701423487	57.58735485923203	118.2305363532801	0	0	54.64885102270151	-8.497718780825554	15.77729042744384	62.25897693655082	111.2855039792756	0	0
14.59999999999978	-5.791536119385382	-0.650840112085617	22.10693781266921	0	0.9399999999999999	0	42.9623239952252	-10.28996120835076	-10.19344979502159	53.39793595804789	0.9319697962370083	0	0	0	42.9623239952252	-10.28996120835076	-10.19344979502159	53.39793595804789	0.9319697962370083	0	0	0	-3.354343043675198	-0.4855196424435919	-0.2011648393594261	19.95183171058429	-18.0748768012863	-6.364633756783668	57.62162290437503	118.1833789997027	0	0	54.63775439306247	-8.452069426989979	15.86185055120407	62.25104840152328	111.2141880086471	0	0
